<?xml version="1.0" standalone="no"?>
<!DOCTYPE svg PUBLIC "-//W3C//DTD SVG 20010904//EN"
 "http://www.w3.org/TR/2001/REC-SVG-20010904/DTD/svg10.dtd">
<svg version="1.0" xmlns="http://www.w3.org/2000/svg"
 width="260.000000pt" height="260.000000pt" viewBox="0 0 260.000000 260.000000"
 preserveAspectRatio="xMidYMid meet">
<metadata>
Created by potrace 1.14, written by Peter Selinger 2001-2017
</metadata>
<g transform="translate(0.000000,260.000000) scale(0.100000,-0.100000)"
fill="#000000" stroke="none">
<path d="M0 1300 l0 -1300 1300 0 1300 0 0 1300 0 1300 -1300 0 -1300 0 0
-1300z m1430 895 c345 -52 619 -282 729 -611 64 -191 64 -387 0 -580 -134
-403 -541 -663 -963 -614 -342 40 -623 256 -749 575 -50 128 -62 191 -60 340
0 97 6 149 21 206 89 330 325 574 638 660 142 39 245 46 384 24z"/>
<path d="M1013 1494 c-54 -47 -102 -92 -106 -100 -11 -20 10 -54 34 -54 11 0
46 23 78 50 32 28 60 50 64 50 4 0 8 -107 9 -237 l3 -238 35 0 35 0 3 298 2
297 -26 10 c-14 6 -27 10 -29 10 -2 0 -48 -39 -102 -86z"/>
<path d="M1375 1561 c-45 -20 -95 -73 -95 -100 0 -22 19 -41 40 -41 9 0 36 18
59 40 37 35 47 40 91 40 38 0 55 -6 79 -26 64 -53 29 -129 -65 -142 -45 -7
-49 -10 -52 -36 -4 -33 10 -46 51 -46 62 0 117 -48 117 -102 0 -97 -130 -146
-224 -84 -12 7 -30 33 -41 55 -16 38 -22 42 -49 39 -25 -2 -32 -8 -34 -30 -2
-15 4 -40 13 -57 37 -72 108 -111 205 -111 109 0 186 52 210 141 16 58 3 106
-41 154 l-37 41 23 22 c73 70 42 197 -59 243 -53 24 -139 24 -191 0z"/>
</g>
</svg>
